HIERARCHY
ROOT hip
{
  OFFSET 0.00112043 5.09927 -9.65472
  CHANNELS 6 Xposition Yposition Zposition Zrotation Xrotation Yrotation
  JOINT abdomen
  {
    OFFSET 0 -1.186 -1.5018
    CHANNELS 3 Zrotation Xrotation Yrotation
    JOINT abdomen2
    {
      OFFSET 0 9.964 0.2134
      CHANNELS 3 Zrotation Xrotation Yrotation
      JOINT chest
      {
        OFFSET 0 13.134 -3.2573
        CHANNELS 3 Zrotation Xrotation Yrotation
        JOINT neck
        {
          OFFSET 0 20.686 -1.6905
          CHANNELS 3 Zrotation Xrotation Yrotation
          JOINT head
          {
            OFFSET 0 7.238 -0.1237
            CHANNELS 3 Zrotation Xrotation Yrotation
            End Site
            {
              OFFSET 0 0 0
            }
          }
        }
        JOINT lCollar
        {
          OFFSET 1.7069 20.075 5.0056
          CHANNELS 3 Zrotation Xrotation Yrotation
          JOINT lShldr
          {
            OFFSET 13.6458 -0.047 -4.849
            CHANNELS 3 Zrotation Xrotation Yrotation
            JOINT lForeArm
            {
              OFFSET 28.3255 -0.9759 2.2888
              CHANNELS 3 Zrotation Xrotation Yrotation
              JOINT lHand
              {
                OFFSET 22.1583 -0.53 10.8316
                CHANNELS 3 Zrotation Xrotation Yrotation
                JOINT lThumb1
                {
                  OFFSET 0.786 0.112 2.5817
                  CHANNELS 3 Zrotation Xrotation Yrotation
                  JOINT lThumb2
                  {
                    OFFSET 0.3601 -0.878 4.2331
                    CHANNELS 3 Zrotation Xrotation Yrotation
                    JOINT lThumb2_End
                    {
                      OFFSET 1.8127 -1.216 2.2227
                      CHANNELS 3 Zrotation Xrotation Yrotation
                      End Site
                      {
                        OFFSET 0.0181 -0.0122 0.0222
                      }
                    }
                  }
                }
                JOINT lCarpal1
                {
                  OFFSET 0.9571 1.114 1.7695
                  CHANNELS 3 Zrotation Xrotation Yrotation
                  JOINT lIndex1
                  {
                    OFFSET 4.1246 0.487 4.1451
                    CHANNELS 3 Zrotation Xrotation Yrotation
                    JOINT lIndex2
                    {
                      OFFSET 3.4052 -1.454 2.7682
                      CHANNELS 3 Zrotation Xrotation Yrotation
                      JOINT lIndex2_End
                      {
                        OFFSET 1.4531 -1.795 1.2713
                        CHANNELS 3 Zrotation Xrotation Yrotation
                        End Site
                        {
                          OFFSET 0.0145 -0.0179 0.0127
                        }
                      }
                    }
                  }
                  JOINT lMid1
                  {
                    OFFSET 5.6954 0.21 2.1184
                    CHANNELS 3 Zrotation Xrotation Yrotation
                    JOINT lMid2
                    {
                      OFFSET 3.9766 -1.54 2.3863
                      CHANNELS 3 Zrotation Xrotation Yrotation
                      JOINT lMid2_End
                      {
                        OFFSET 1.4042 -1.926 1.125
                        CHANNELS 3 Zrotation Xrotation Yrotation
                        End Site
                        {
                          OFFSET 0.014 -0.0193 0.0113
                        }
                      }
                    }
                  }
                }
                JOINT lCarpal2
                {
                  OFFSET 2.0956 0.66 -0.3894
                  CHANNELS 3 Zrotation Xrotation Yrotation
                  JOINT lRing1
                  {
                    OFFSET 5.0395 -0.09 2.4971
                    CHANNELS 3 Zrotation Xrotation Yrotation
                    JOINT lRing2
                    {
                      OFFSET 3.7921 -1.552 1.4806
                      CHANNELS 3 Zrotation Xrotation Yrotation
                      JOINT lRing2_End
                      {
                        OFFSET 1.4655 -1.808 0.9609
                        CHANNELS 3 Zrotation Xrotation Yrotation
                        End Site
                        {
                          OFFSET 0.0147 -0.0181 0.0096
                        }
                      }
                    }
                  }
                  JOINT lPinky1
                  {
                    OFFSET 4.9141 -1.269 0.3591
                    CHANNELS 3 Zrotation Xrotation Yrotation
                    JOINT lPinky2
                    {
                      OFFSET 3.1477 -1.685 0.8462
                      CHANNELS 3 Zrotation Xrotation Yrotation
                      JOINT lPinky2_End
                      {
                        OFFSET 0.8055 -1.585 0.7955
                        CHANNELS 3 Zrotation Xrotation Yrotation
                        End Site
                        {
                          OFFSET 0.0081 -0.0158 0.008
                        }
                      }
                    }
                  }
                }
              }
            }
          }
        }
        JOINT rCollar
        {
          OFFSET -1.7069 20.075 5.0056
          CHANNELS 3 Zrotation Xrotation Yrotation
          JOINT rShldr
          {
            OFFSET -13.6458 -0.047 -4.849
            CHANNELS 3 Zrotation Xrotation Yrotation
            JOINT rForeArm
            {
              OFFSET -28.3255 -0.9759 2.2888
              CHANNELS 3 Zrotation Xrotation Yrotation
              JOINT rHand
              {
                OFFSET -22.1583 -0.53 10.8316
                CHANNELS 3 Zrotation Xrotation Yrotation
                JOINT rThumb1
                {
                  OFFSET -0.786 0.112 2.5817
                  CHANNELS 3 Zrotation Xrotation Yrotation
                  JOINT rThumb2
                  {
                    OFFSET -0.3601 -0.878 4.2331
                    CHANNELS 3 Zrotation Xrotation Yrotation
                    JOINT rThumb2_End
                    {
                      OFFSET -1.8127 -1.216 2.2227
                      CHANNELS 3 Zrotation Xrotation Yrotation
                      End Site
                      {
                        OFFSET -0.0181 -0.0122 0.0222
                      }
                    }
                  }
                }
                JOINT rCarpal1
                {
                  OFFSET -0.9571 1.114 1.7695
                  CHANNELS 3 Zrotation Xrotation Yrotation
                  JOINT rIndex1
                  {
                    OFFSET -4.1246 0.487 4.1451
                    CHANNELS 3 Zrotation Xrotation Yrotation
                    JOINT rIndex2
                    {
                      OFFSET -3.4052 -1.454 2.7682
                      CHANNELS 3 Zrotation Xrotation Yrotation
                      JOINT rIndex2_End
                      {
                        OFFSET -1.4531 -1.795 1.2713
                        CHANNELS 3 Zrotation Xrotation Yrotation
                        End Site
                        {
                          OFFSET -0.0145 -0.018 0.0127
                        }
                      }
                    }
                  }
                  JOINT rMid1
                  {
                    OFFSET -5.6954 0.21 2.1184
                    CHANNELS 3 Zrotation Xrotation Yrotation
                    JOINT rMid2
                    {
                      OFFSET -3.9766 -1.54 2.3863
                      CHANNELS 3 Zrotation Xrotation Yrotation
                      JOINT rMid2_End
                      {
                        OFFSET -1.4042 -1.926 1.125
                        CHANNELS 3 Zrotation Xrotation Yrotation
                        End Site
                        {
                          OFFSET -0.014 -0.0193 0.0113
                        }
                      }
                    }
                  }
                }
                JOINT rCarpal2
                {
                  OFFSET -2.0956 0.66 -0.3894
                  CHANNELS 3 Zrotation Xrotation Yrotation
                  JOINT rRing1
                  {
                    OFFSET -5.0395 -0.09 2.4971
                    CHANNELS 3 Zrotation Xrotation Yrotation
                    JOINT rRing2
                    {
                      OFFSET -3.7921 -1.552 1.4806
                      CHANNELS 3 Zrotation Xrotation Yrotation
                      JOINT rRing2_End
                      {
                        OFFSET -1.4655 -1.808 0.9609
                        CHANNELS 3 Zrotation Xrotation Yrotation
                        End Site
                        {
                          OFFSET -0.0147 -0.0181 0.0096
                        }
                      }
                    }
                  }
                  JOINT rPinky1
                  {
                    OFFSET -4.9141 -1.269 0.3592
                    CHANNELS 3 Zrotation Xrotation Yrotation
                    JOINT rPinky2
                    {
                      OFFSET -3.1477 -1.685 0.8462
                      CHANNELS 3 Zrotation Xrotation Yrotation
                      JOINT rPinky2_End
                      {
                        OFFSET -0.8055 -1.585 0.7955
                        CHANNELS 3 Zrotation Xrotation Yrotation
                        End Site
                        {
                          OFFSET -0.0081 -0.0158 0.008
                        }
                      }
                    }
                  }
                }
              }
            }
          }
        }
      }
    }
  }
  JOINT lThigh
  {
    OFFSET 8.367 -8.2066 0.5982
    CHANNELS 3 Zrotation Xrotation Yrotation
    JOINT lShin
    {
      OFFSET 2.1923 -43.463 -0.4932
      CHANNELS 3 Zrotation Xrotation Yrotation
      JOINT lFoot
      {
        OFFSET 0.7333 -45.8593 -2.6451
        CHANNELS 3 Zrotation Xrotation Yrotation
        End Site
        {
          OFFSET 2.6618 -4.2699 12.3931
        }
      }
    }
  }
  JOINT rThigh
  {
    OFFSET -8.367 -8.2066 0.5982
    CHANNELS 3 Zrotation Xrotation Yrotation
    JOINT rShin
    {
      OFFSET -2.1923 -43.463 -0.4931
      CHANNELS 3 Zrotation Xrotation Yrotation
      JOINT rFoot
      {
        OFFSET -0.7333 -45.8593 -2.6451
        CHANNELS 3 Zrotation Xrotation Yrotation
        End Site
        {
          OFFSET -2.6618 -4.2699 12.3931
        }
      }
    }
  }
}
MOTION
Frames:	5
Frame Time:	0.0333333
0 91.7903 2.51682 0 0 -0 0 0 -0 0 0 -0 0 0 -0 0 0 -0 0 0 -0 0 0 -0 1.66051 0.0835086 5.75766 -0.0175111 0.895433 15.7816 7.95139e-016 -1.98785e-016 -0 5.46658e-016 -3.97569e-016 -0 5.96354e-016 0 -0 3.97569e-016 1.98785e-016 9.54166e-015 1.49089e-016 -3.97569e-016 -0 6.4605e-016 0 3.18055e-015 5.96354e-016 0 3.18055e-015 8.94531e-016 -1.98785e-016 6.36111e-015 6.4605e-016 0 3.18055e-015 5.96354e-016 0 3.18055e-015 8.94531e-016 -1.98785e-016 6.36111e-015 1.49089e-016 -3.97569e-016 -0 6.4605e-016 0 3.18055e-015 5.96354e-016 0 3.18055e-015 8.94531e-016 -1.98785e-016 6.36111e-015 6.4605e-016 0 3.18055e-015 5.96354e-016 0 3.18055e-015 8.94531e-016 -1.98785e-016 6.36111e-015 0 0 -0 -1.4496 0.0636048 -5.0245 -1.74811 1.20616 -16.8394 -1.19271e-015 1.98785e-016 -3.18055e-015 -3.97569e-016 1.98785e-016 -3.18055e-015 -2.98177e-016 1.98785e-016 -3.18055e-015 -2.98177e-016 3.97569e-016 -0 4.96962e-016 0 -6.36111e-015 -9.93923e-017 3.97569e-016 -0 -8.94531e-016 5.96354e-016 -0 -3.97569e-016 3.97569e-016 -0 -9.93923e-017 3.97569e-016 -0 -8.94531e-016 5.96354e-016 -0 -3.97569e-016 3.97569e-016 -0 4.96962e-016 0 -6.36111e-015 -9.93923e-017 3.97569e-016 -0 -8.94531e-016 5.96354e-016 -0 -3.97569e-016 3.97569e-016 -0 -9.93923e-017 3.97569e-016 -0 -8.94531e-016 5.96354e-016 -0 -3.97569e-016 3.97569e-016 -0 -4.66111 -0.998717 0.12318 0.00986924 1.54847 0.176523 4.65186 -0.572283 -0.254274 4.66111 -0.998765 -0.123176 -0.00986867 1.54869 -0.176537 -4.65186 -0.572453 0.25427 
-47.2444 1.46935 -11.6099 -180 -89.9981 -180 -0.671199 8.11503 0.155347 -1.38609 16.2276 0.414184 -1.38609 16.2276 0.414185 -6.8281e-005 17.9985 1.91456e-005 -1.00212e-006 -55.0006 -9.98761e-007 15.5839 3.59581 16.812 -38.5342 29.7438 45.5501 32.5246 2.24882 -25.2032 2.8192 24.3792 -2.64243 7.95139e-016 -9.54166e-015 1.59028e-015 1.59028e-015 0 4.77083e-015 2.38542e-015 -9.54166e-015 -1.59028e-015 -7.95139e-016 0 -0 -7.95139e-016 0 9.54166e-015 1.59028e-015 -3.18055e-015 3.18055e-015 1.76556e-031 -6.36111e-015 1.59028e-015 -7.95139e-016 0 9.54166e-015 1.59028e-015 -3.18055e-015 3.18055e-015 1.76556e-031 -6.36111e-015 1.59028e-015 -7.95139e-016 0 -0 -7.95139e-016 0 9.54166e-015 1.59028e-015 -3.18055e-015 3.18055e-015 1.76556e-031 -6.36111e-015 1.59028e-015 -7.95139e-016 0 9.54166e-015 1.59028e-015 -3.18055e-015 3.18055e-015 1.76556e-031 -6.36111e-015 1.59028e-015 -0.60742 0.433275 -8.61063 75.8927 1.42001 -35.2984 -19.9101 3.57447 51.3554 -3.12826 24.2761 3.39523 3.18055e-015 -1.19271e-015 -1.27222e-014 4.77083e-015 -7.15625e-015 -3.18055e-015 -1.59028e-015 -7.95139e-016 -0 1.59028e-015 -3.97569e-016 -9.54166e-015 5.56597e-015 -1.98785e-015 9.54166e-015 -5.56597e-015 1.98785e-015 -9.54166e-015 8.82781e-031 3.97569e-015 -1.27222e-014 5.56597e-015 -1.98785e-015 9.54166e-015 -5.56597e-015 1.98785e-015 -9.54166e-015 8.82781e-031 3.97569e-015 -1.27222e-014 1.59028e-015 -3.97569e-016 -9.54166e-015 5.56597e-015 -1.98785e-015 9.54166e-015 -5.56597e-015 1.98785e-015 -9.54166e-015 8.82781e-031 3.97569e-015 -1.27222e-014 5.56597e-015 -1.98785e-015 9.54166e-015 -5.56597e-015 1.98785e-015 -9.54166e-015 8.82781e-031 3.97569e-015 -1.27222e-014 14.095 0.422914 1.29304 -1.307 4.51817 2.14741 1.92706 34.6765 9.74238 -5.0364 -17.931 -3.89006 3.45907 39.765 -3.93176 3.86856 18.3946 10.6636 
-47.2474 1.47726 -11.6087 -180 -89.9981 -180 -0.671199 8.11503 0.155346 -1.38609 16.2276 0.414184 -1.38609 16.2276 0.414185 -7.42129e-005 17.9986 2.10724e-005 0.786269 -54.9126 0.623989 15.5839 3.59581 16.812 -38.5342 29.7438 45.5501 32.5246 2.24882 -25.2032 2.8192 24.3792 -2.64243 3.18055e-015 3.18055e-015 3.18055e-015 3.18055e-015 1.27222e-014 6.36111e-015 3.18055e-015 6.36111e-015 -0 7.95139e-016 0 1.59028e-015 4.77083e-015 3.18055e-015 1.11319e-014 3.97569e-015 6.36111e-015 3.18055e-015 4.77083e-015 3.18055e-015 3.18055e-015 4.77083e-015 3.18055e-015 1.11319e-014 3.97569e-015 6.36111e-015 3.18055e-015 4.77083e-015 3.18055e-015 3.18055e-015 7.95139e-016 0 1.59028e-015 4.77083e-015 3.18055e-015 1.11319e-014 3.97569e-015 6.36111e-015 3.18055e-015 4.77083e-015 3.18055e-015 3.18055e-015 4.77083e-015 3.18055e-015 1.11319e-014 3.97569e-015 6.36111e-015 3.18055e-015 4.77083e-015 3.18055e-015 3.18055e-015 -0.60742 0.433275 -8.61063 75.8927 1.42001 -35.2984 -19.9428 3.3593 51.9062 -2.89114 23.8117 3.41605 1.59028e-015 1.19271e-015 3.18055e-015 7.95139e-016 0 -6.36111e-015 -1.59028e-015 -1.98785e-015 3.18055e-015 -1.59028e-015 0 -0 -7.95139e-016 6.36111e-015 -0 6.36111e-015 -4.77083e-015 -3.18055e-015 3.97569e-015 7.55382e-015 -3.18055e-015 -7.95139e-016 6.36111e-015 -0 6.36111e-015 -4.77083e-015 -3.18055e-015 3.97569e-015 7.55382e-015 -3.18055e-015 -1.59028e-015 0 -0 -7.95139e-016 6.36111e-015 -0 6.36111e-015 -4.77083e-015 -3.18055e-015 3.97569e-015 7.55382e-015 -3.18055e-015 -7.95139e-016 6.36111e-015 -0 6.36111e-015 -4.77083e-015 -3.18055e-015 3.97569e-015 7.55382e-015 -3.18055e-015 14.0971 0.428036 1.29319 -1.30706 4.51795 2.14625 1.92421 34.6718 9.74345 -5.11716 -18.1884 -4.11171 3.47498 40.5031 -4.00071 3.87569 18.4491 10.6398 
-47.2505 1.4852 -11.6075 -180 -89.9981 -180 -0.671199 8.11503 0.155347 -1.38609 16.2276 0.414184 -1.38609 16.2276 0.414185 -1.08506e-006 17.9984 -1.25471e-007 1.56977 -54.8197 1.24498 15.5839 3.59581 16.812 -38.5342 29.7438 45.5501 32.5246 2.24882 -25.2032 2.8192 24.3792 -2.64243 -7.95139e-016 -3.18055e-015 -0 -3.18055e-015 0 -1.59028e-015 7.95139e-016 -3.18055e-015 -1.59028e-015 -1.59028e-015 -3.18055e-015 -1.59028e-015 -3.18055e-015 -3.18055e-015 7.95139e-015 3.18055e-015 0 1.59028e-015 -0 -3.18055e-015 -0 -3.18055e-015 -3.18055e-015 7.95139e-015 3.18055e-015 0 1.59028e-015 -0 -3.18055e-015 -0 -1.59028e-015 -3.18055e-015 -1.59028e-015 -3.18055e-015 -3.18055e-015 7.95139e-015 3.18055e-015 0 1.59028e-015 -0 -3.18055e-015 -0 -3.18055e-015 -3.18055e-015 7.95139e-015 3.18055e-015 0 1.59028e-015 -0 -3.18055e-015 -0 -0.60742 0.433275 -8.61063 75.8927 1.42001 -35.2984 -19.9735 3.14298 52.4587 -2.65423 23.3465 3.43895 -7.95139e-016 3.18055e-015 6.36111e-015 -3.18055e-015 7.95139e-016 3.18055e-015 -2.38542e-015 -1.03368e-014 9.54166e-015 -7.95139e-016 5.56597e-015 6.36111e-015 -2.38542e-015 -8.74653e-015 -0 -2.38542e-015 -6.36111e-015 -3.18055e-015 6.36111e-015 -7.95139e-015 3.18055e-015 -2.38542e-015 -8.74653e-015 -0 -2.38542e-015 -6.36111e-015 -3.18055e-015 6.36111e-015 -7.95139e-015 3.18055e-015 -7.95139e-016 5.56597e-015 6.36111e-015 -2.38542e-015 -8.74653e-015 -0 -2.38542e-015 -6.36111e-015 -3.18055e-015 6.36111e-015 -7.95139e-015 3.18055e-015 -2.38542e-015 -8.74653e-015 -0 -2.38542e-015 -6.36111e-015 -3.18055e-015 6.36111e-015 -7.95139e-015 3.18055e-015 14.0992 0.433025 1.29334 -1.30715 4.51817 2.14506 1.92122 34.6667 9.74457 -5.19927 -18.4464 -4.33453 3.49239 41.2449 -4.07113 3.88273 18.5036 10.6159 
-47.2538 1.49319 -11.6062 -180 -89.9981 -180 -0.671199 8.11503 0.155346 -1.38609 16.2276 0.414184 -1.38609 16.2276 0.414185 -1.41346e-006 17.9984 5.02091e-007 2.35031 -54.7219 1.8628 15.5839 3.59581 16.812 -38.5342 29.7438 45.5501 32.5246 2.24882 -25.2032 2.8192 24.3792 -2.64243 -1.59028e-015 -3.18055e-015 1.59028e-015 -2.38542e-015 -6.36111e-015 1.59028e-015 3.18055e-015 -1.27222e-014 -1.59028e-015 -1.59028e-015 -3.18055e-015 -0 -7.95139e-016 -6.36111e-015 7.95139e-015 -2.64834e-031 -9.54166e-015 -1.59028e-015 1.59028e-015 -6.36111e-015 -1.59028e-015 -7.95139e-016 -6.36111e-015 7.95139e-015 -2.64834e-031 -9.54166e-015 -1.59028e-015 1.59028e-015 -6.36111e-015 -1.59028e-015 -1.59028e-015 -3.18055e-015 -0 -7.95139e-016 -6.36111e-015 7.95139e-015 -2.64834e-031 -9.54166e-015 -1.59028e-015 1.59028e-015 -6.36111e-015 -1.59028e-015 -7.95139e-016 -6.36111e-015 7.95139e-015 -2.64834e-031 -9.54166e-015 -1.59028e-015 1.59028e-015 -6.36111e-015 -1.59028e-015 -0.60742 0.433275 -8.61063 75.8927 1.42002 -35.2984 -20.0022 2.92557 53.013 -2.41748 22.8805 3.46391 -1.59028e-015 1.51076e-014 -9.54166e-015 -3.18055e-015 7.95139e-016 -1.27222e-014 -2.38542e-015 1.19271e-014 -6.36111e-015 -2.38542e-015 4.77083e-015 -3.18055e-015 -7.95139e-016 -2.38542e-015 -1.59028e-014 1.05934e-030 9.54166e-015 -6.36111e-015 -1.59028e-015 9.54166e-015 -1.27222e-014 -7.95139e-016 -2.38542e-015 -1.59028e-014 1.05934e-030 9.54166e-015 -6.36111e-015 -1.59028e-015 9.54166e-015 -1.27222e-014 -2.38542e-015 4.77083e-015 -3.18055e-015 -7.95139e-016 -2.38542e-015 -1.59028e-014 1.05934e-030 9.54166e-015 -6.36111e-015 -1.59028e-015 9.54166e-015 -1.27222e-014 -7.95139e-016 -2.38542e-015 -1.59028e-014 1.05934e-030 9.54166e-015 -6.36111e-015 -1.59028e-015 9.54166e-015 -1.27222e-014 14.1015 0.438134 1.29347 -1.30721 4.51812 2.14381 1.91809 34.6618 9.74574 -5.28273 -18.7049 -4.55855 3.51134 41.9902 -4.14308 3.88965 18.5583 10.5919 
